<svg width="29" height="28" viewBox="0 0 29 28" fill="none" xmlns="http://www.w3.org/2000/svg">
<g id="Component 13">
<path id="Rectangle 25" d="M17.875 1.48737H11.125C6.35203 1.48737 3.96554 1.48737 2.48277 3.03674C1 4.58611 1 7.07979 1 12.0672V15.5938C1 20.5811 1 23.0748 2.48277 24.6242C3.96554 26.1735 6.35203 26.1735 11.125 26.1735H17.875C22.648 26.1735 25.0345 26.1735 26.5172 24.6242C28 23.0748 28 20.5811 28 15.5938V12.0672C28 7.07979 28 4.58611 26.5172 3.03674C25.0345 1.48737 22.648 1.48737 17.875 1.48737Z" stroke="white" stroke-width="2"/>
<path id="Vector 70" d="M7 7.65894H11" stroke="white" stroke-width="2" stroke-linecap="round"/>
<path id="Vector 57" d="M19 18.002V15.8305C19 14.8877 19 14.4163 19.2929 14.1234C19.5858 13.8305 20.0572 13.8305 21 13.8305H26C26.9428 13.8305 27.4142 13.8305 27.7071 14.1234C28 14.4163 28 14.8877 28 15.8305V18.002C28 18.9448 28 19.4162 27.7071 19.7091C27.4142 20.002 26.9428 20.002 26 20.002H21C20.0572 20.002 19.5858 20.002 19.2929 19.7091C19 19.4162 19 18.9448 19 18.002Z" stroke="white" stroke-width="2"/>
</g>
</svg>
